<?xml version="1.0" standalone="no"?>
<!DOCTYPE svg PUBLIC "-//W3C//DTD SVG 20010904//EN"
 "http://www.w3.org/TR/2001/REC-SVG-20010904/DTD/svg10.dtd">
<svg version="1.0" xmlns="http://www.w3.org/2000/svg"
 width="96.000000pt" height="96.000000pt" viewBox="0 0 96.000000 96.000000"
 preserveAspectRatio="xMidYMid meet">
<metadata>
Created by potrace 1.14, written by Peter Selinger 2001-2017
</metadata>
<g transform="translate(0.000000,96.000000) scale(0.100000,-0.100000)"
fill="#000000" stroke="none">
<path d="M0 480 l0 -480 480 0 480 0 0 480 0 480 -480 0 -480 0 0 -480z m400
182 l0 -87 94 -1 c102 -1 131 -11 163 -61 14 -21 18 -55 21 -165 l4 -138 -61
0 -61 0 0 106 c0 136 -4 144 -80 144 -76 0 -80 -8 -80 -144 l0 -106 -60 0 -60
0 0 270 0 270 60 0 60 0 0 -88z"/>
</g>
</svg>
